<?xml version="1.0" encoding="iso-8859-1"?>
<!-- Uploaded to: SVG Repo, www.svgrepo.com, Generator: SVG Repo Mixer Tools -->
<svg fill="#000000" height="800px" width="800px" version="1.1" id="Layer_1" xmlns="http://www.w3.org/2000/svg" xmlns:xlink="http://www.w3.org/1999/xlink" 
	 viewBox="0 0 511.998 511.998" xml:space="preserve">
<g>
	<g>
		<path d="M480.037,86.769c-15.324-23.21-41.626-38.564-71.459-38.564c-67.509,0-125.842,39.996-152.577,97.531
			c-26.735-57.535-85.068-97.531-152.577-97.531c-29.833,0-56.136,15.353-71.459,38.564C13.659,91.123,0,107.6,0,127.217
			c0,22.93,18.655,41.584,41.585,41.584c7.359,0,14.272-1.93,20.274-5.297c1.734,1.754,3.349,3.655,4.824,5.699
			c7.63,10.583,10.517,23.475,8.13,36.303c-0.094,0.507-0.16,1.011-0.203,1.513c-15.268,6.161-26.075,21.124-26.075,38.573
			c0,17.426,10.779,32.373,26.015,38.549v127.465c0,28.776,23.411,52.185,52.186,52.185h260.188
			c28.776,0,52.186-23.411,52.186-52.185v-127.58c15.081-6.248,25.719-21.119,25.719-38.433c0-17.994-11.489-33.349-27.515-39.129
			c-0.039-0.319-0.069-0.637-0.129-0.957c-2.387-12.827,0.499-25.719,8.13-36.303c1.474-2.045,3.09-3.945,4.824-5.7
			c6.002,3.367,12.916,5.297,20.275,5.297c22.93,0,41.584-18.655,41.584-41.584C512,107.6,498.341,91.123,480.037,86.769z
			 M41.585,137.663c-5.761,0.001-10.447-4.685-10.447-10.446c0-5.761,4.686-10.446,10.447-10.446c5.76,0,10.446,4.686,10.446,10.446
			C52.031,132.977,47.345,137.663,41.585,137.663z M258.738,235.148c5.761,0,10.447,4.686,10.447,10.446
			c0,5.76-4.687,10.446-10.447,10.446c-5.76,0.001-10.446-4.685-10.446-10.446C248.292,239.834,252.978,235.148,258.738,235.148z
			 M66.43,93.889c9.719-9.019,22.722-14.547,36.994-14.547c72.874,0,132.632,57.191,136.77,129.046
			c-3.558,1.781-6.825,4.054-9.713,6.733c-8.19,7.6-13.328,18.445-13.328,30.473c0,8.048,2.305,15.564,6.28,21.937l-11.366,9.434
			l-35.811,29.724l-31.235-27.761l-17.37-15.438c2.597-5.423,4.054-11.492,4.054-17.896c0-15.55-8.585-29.126-21.258-36.258
			c-1.412-0.794-2.871-1.513-4.378-2.141c2.684-19.936-2.267-39.75-14.126-56.2c-3.143-4.359-6.67-8.327-10.514-11.883
			c1.128-3.771,1.743-7.762,1.743-11.894C83.171,113.592,76.585,101.478,66.43,93.889z M90.12,256.04
			c-5.76,0-10.446-4.686-10.446-10.446s4.685-10.446,10.446-10.446s10.447,4.686,10.447,10.446S95.881,256.04,90.12,256.04z
			 M407.973,411.61c0,11.605-9.442,21.047-21.048,21.047H126.737c-11.606,0-21.047-9.442-21.047-21.047v-0.564h302.283V411.61z
			 M407.974,379.907H105.689v-94.275l59.877,53.216c5.75,5.11,14.368,5.254,20.287,0.343l63.865-53.009
			c2.906,0.646,5.922,0.996,9.021,0.996c2.736,0,5.409-0.273,7.998-0.78l59.013,52.448c2.945,2.617,6.642,3.932,10.344,3.932
			c3.525,0,7.056-1.193,9.942-3.589l61.937-51.408V379.907z M423.245,256.041c-5.761,0-10.446-4.686-10.446-10.446
			s4.686-10.446,10.446-10.446s10.446,4.686,10.446,10.446S429.005,256.041,423.245,256.041z M428.831,127.217
			c0,4.133,0.615,8.123,1.742,11.894c-3.846,3.557-7.371,7.524-10.515,11.883c-11.972,16.606-16.892,36.639-14.038,56.765
			c-1.014,0.464-2.008,0.963-2.977,1.504c-12.743,7.114-21.383,20.729-21.383,36.33c0,7.049,1.769,13.689,4.876,19.512l-8.431,6.998
			l-41.667,34.584l-36.343-32.301l-6.656-5.915c4.345-6.568,6.884-14.432,6.884-22.878c0-12.158-5.246-23.113-13.592-30.724
			c-4.224-3.853-9.248-6.837-14.784-8.697c5.225-70.811,64.507-126.83,136.63-126.83c14.273,0,27.275,5.528,36.994,14.547
			C435.417,101.479,428.831,113.594,428.831,127.217z M470.415,137.663c-5.76,0-10.446-4.685-10.446-10.446
			c0-5.761,4.686-10.446,10.446-10.446s10.446,4.686,10.446,10.446C480.861,132.977,476.174,137.663,470.415,137.663z"/>
	</g>
</g>
</svg>