<?xml version="1.0" encoding="iso-8859-1"?>
<!-- Uploaded to: SVG Repo, www.svgrepo.com, Generator: SVG Repo Mixer Tools -->
<svg fill="#000000" height="800px" width="800px" version="1.1" id="Layer_1" xmlns="http://www.w3.org/2000/svg" xmlns:xlink="http://www.w3.org/1999/xlink" 
	 viewBox="0 0 512 512" xml:space="preserve">
<g>
	<g>
		<path d="M511.022,348.847l-16.761-45.628c-1.821-4.955-5.889-8.764-11.014-10.024c-5.113-1.254-10.414,0.02-14.319,3.544
			c-0.617,0.52-2.182,1.774-4.496,3.218V117.107c0-6.406-3.852-12.183-9.764-14.647L262.103,22.22c-3.907-1.628-8.3-1.628-12.206,0
			L57.331,102.461c-5.913,2.464-9.764,8.24-9.764,14.647v182.85c-2.315-1.443-3.879-2.696-4.496-3.218
			c-3.903-3.522-9.208-4.795-14.319-3.544c-5.125,1.259-9.194,5.069-11.014,10.024L0.977,348.847
			c-3.021,8.225,1.198,17.344,9.423,20.365c8.229,3.022,17.344-1.199,20.365-9.423l10.169-27.681c2.94,1.285,6.171,2.49,9.656,3.493
			c11.893,3.425,28.331,4.961,46.073-2.888L107,363.147c2.244,6.607,8.413,10.77,15.023,10.77c1.691,0,3.413-0.273,5.103-0.847
			c8.299-2.818,12.741-11.83,9.922-20.126l-15.496-45.628l3.243-20.267l11.844,6.609c7.651,4.27,17.317,1.528,21.588-6.124
			c4.271-7.652,1.529-17.318-6.124-21.588l-31.66-17.667c-4.523-2.525-9.995-2.68-14.656-0.42
			c-4.661,2.261-7.925,6.654-8.744,11.769l-6.438,40.235c-3.917,2.605-7.762,4.328-11.467,5.377
			c0.095-0.703,0.162-1.415,0.162-2.144V190.587h121.787v268.679h-80.344c-8.763,0-15.867,7.104-15.867,15.868
			c0,8.763,7.104,15.867,15.867,15.867h270.508c8.763,0,15.868-7.104,15.868-15.867c0-8.763-7.104-15.868-15.868-15.868h-80.344
			V190.587h121.787v112.505c0,0.729,0.067,1.441,0.162,2.144c-3.705-1.048-7.55-2.77-11.467-5.376l-6.438-40.235
			c-0.818-5.116-4.082-9.509-8.744-11.769c-4.661-2.262-10.131-2.103-14.656,0.42l-31.66,17.667
			c-7.652,4.271-10.394,13.936-6.124,21.588c4.27,7.652,13.936,10.394,21.588,6.124l11.844-6.609l3.243,20.267l-15.496,45.628
			c-2.818,8.298,1.624,17.308,9.922,20.126c1.691,0.574,3.412,0.847,5.103,0.847c6.609,0,12.78-4.164,15.023-10.77l10.336-30.434
			c17.742,7.846,34.182,6.314,46.074,2.888c3.485-1.003,6.716-2.208,9.656-3.493l10.169,27.681
			c3.02,8.226,12.14,12.446,20.365,9.423C509.825,366.19,514.045,357.072,511.022,348.847z M256,54.056l127.7,53.212H128.3
			L256,54.056z M279.175,459.266h-46.35v-26.382h46.35V459.266z M279.175,401.149h-46.35v-31.422h46.35V401.149z M279.175,337.992
			h-46.35V306.57h46.35V337.992z M279.175,274.835h-46.35v-31.422h46.35V274.835z M279.175,211.678h-46.35v-21.091h46.35V211.678z
			 M432.697,158.852H79.302v-19.849h353.395V158.852z"/>
	</g>
</g>
</svg>